<?xml version="1.0" standalone="no"?>
<!DOCTYPE svg PUBLIC "-//W3C//DTD SVG 20010904//EN"
 "http://www.w3.org/TR/2001/REC-SVG-20010904/DTD/svg10.dtd">
<svg version="1.0" xmlns="http://www.w3.org/2000/svg"
 width="260.000000pt" height="260.000000pt" viewBox="0 0 260.000000 260.000000"
 preserveAspectRatio="xMidYMid meet">
<metadata>
Created by potrace 1.11, written by Peter Selinger 2001-2013
</metadata>
<g transform="translate(0.000000,260.000000) scale(0.100000,-0.100000)"
fill="#000000" stroke="none">
<path d="M1458 2585 c-2 -2 -34 -6 -73 -10 -150 -14 -301 -53 -458 -116 -218
-88 -393 -204 -554 -367 -155 -158 -186 -227 -125 -284 57 -55 122 -45 171 26
16 23 64 76 107 119 229 226 528 370 864 415 71 9 368 9 440 0 174 -23 292
-85 324 -171 52 -138 -1 -324 -168 -595 -50 -80 -197 -287 -215 -302 -3 -3
-24 -27 -46 -55 -70 -88 -186 -215 -196 -215 -5 0 -9 12 -8 28 1 15 -1 77 -5
137 -4 61 -9 139 -11 175 -7 137 -16 276 -20 310 -2 19 -7 105 -11 190 -7 162
-11 233 -13 263 0 10 -14 32 -30 48 -43 42 -102 41 -143 -3 l-30 -32 6 -196
c4 -107 9 -211 11 -230 2 -19 6 -80 10 -135 10 -160 14 -225 20 -310 3 -44 7
-125 10 -180 3 -55 7 -138 10 -185 l5 -85 -136 -115 c-74 -63 -143 -122 -152
-130 -10 -8 -44 -37 -77 -65 -74 -61 -77 -64 -98 -95 -46 -66 6 -160 88 -160
14 0 64 20 112 44 91 46 181 79 246 91 37 7 37 7 38 -26 1 -19 3 -56 4 -84 2
-27 4 -60 4 -72 1 -13 14 -37 29 -55 23 -24 37 -31 65 -31 21 0 47 5 60 12 42
23 51 49 48 154 -2 114 -9 111 108 53 76 -36 201 -153 254 -236 57 -91 91
-110 154 -89 39 13 65 51 65 96 0 76 -166 275 -307 367 -82 55 -181 99 -247
110 -21 4 -38 8 -39 9 0 1 -2 34 -5 73 -5 68 -4 72 23 96 27 24 122 123 213
223 38 42 99 114 179 210 21 26 109 146 153 210 229 331 319 649 240 850 -68
174 -237 275 -522 310 -52 7 -367 15 -372 10z"/>
</g>
</svg>
