<svg xmlns="http://www.w3.org/2000/svg" id="camera" width="2.6in" height="1.9in" viewBox="0 0 186 135.9"><circle cx="116.8" cy="73.5" r="25.1"/><path d="M167.4 15.1a2.4 2.4 0 0 0 0-.5V7.2a3.1 3.1 0 0 0-3.1-3.1h-28a3.1 3.1 0 0 0-3.1 3.1v7.4a2.1 2.1 0 0 0 0 .4H65.8v-4.1H31.6v4.2H19.4a12 12 0 0 0-12 12v92.8a12 12 0 0 0 12 12h147.2a12 12 0 0 0 12-12V27.1a12 12 0 0 0-11.2-12zm-142 23a6.2 6.2 0 1 1 6.2-6.2 6.2 6.2 0 0 1-6.2 6.2zM137.6 9.4a3.1 3.1 0 0 1 3.1-3.1h19.1a3.1 3.1 0 0 1 3.2 3.1v2.2a3.1 3.1 0 0 1-3.1 3.1h-19.1a3.1 3.1 0 0 1-3.1-3.1zm-20.8 105.7a41.6 41.6 0 1 1 41.6-41.6 41.6 41.6 0 0 1-41.6 41.6z"/><circle cx="122.8" cy="62.8" r="6"/><circle cx="109.3" cy="88" r="2.2"/></svg>