<svg xmlns="http://www.w3.org/2000/svg" width="96" height="96" viewBox="0 0 68.7 72"><path d="M1 65.9V6a3.6 3.6 0 0 1 3-3.1h60.8a3.7 3.7 0 0 1 2.9 3.7v59a4.2 4.2 0 0 1-.1.9 3.6 3.6 0 0 1-3.7 2.9H47.5c-.3 0-.4-.1-.4-.4V43.9c0-.3.1-.4.4-.4h8.3l1.2-10h-9.6c-.3 0-.4-.1-.4-.3v-5.4c0-1.8.1-1.5.1-2.2a3.2 3.2 0 0 1 2.5-3l2.4-.3h5.3v-8.7c0-.2 0-.3-.2-.4l-3.3-.2h-4.4a14.3 14.3 0 0 0-3.9.5 11.1 11.1 0 0 0-7.2 5.3 13.7 13.7 0 0 0-1.7 6.6c-.1 2.6 0 5.3 0 7.9 0 .4 0 .4-.4.4h-8.3v9.9h8.3c.3 0 .4.1.4.4v25c0 .3-.1.4-.4.4H4.8a3.7 3.7 0 0 1-3.7-2.9z"/><path fill="#fff" d="M1 65.9v.5a3.7 3.7 0 0 0 3.7 2.9h31.5c.3 0 .4-.1.4-.4v-25c0-.3-.1-.4-.4-.4h-8.3v-10h8.3c.4 0 .4 0 .4-.4v-7.9a13.7 13.7 0 0 1 1.7-6.6 11.1 11.1 0 0 1 7.2-5.3 14.3 14.3 0 0 1 3.9-.5h4.4l3.3.2c.3 0 .2.2.2.4v8.7h-5.2l-2.4.3a3.2 3.2 0 0 0-2.5 3c-.1.7-.1 1.5-.1 2.2V33c0 .3.1.3.4.3H57l-1.3 10.3h-8.2c-.3 0-.4 0-.4.4v25.1c0 .3.1.4.4.4h16.4a3.6 3.6 0 0 0 3.7-2.9 4.2 4.2 0 0 0 .1-.9v-59A3.7 3.7 0 0 0 64.8 3h3v66.7H1zM4.5 2.7H4A3.6 3.6 0 0 0 1.1 6V2.7z"/></svg>