<svg xmlns="http://www.w3.org/2000/svg"><symbol id="camera" viewBox="0 0 186 135.9"><circle cx="116.8" cy="73.5" r="25.1"/><path d="M167.4 15.1a2.4 2.4 0 0 0 0-.5V7.2a3.1 3.1 0 0 0-3.1-3.1h-28a3.1 3.1 0 0 0-3.1 3.1v7.4a2.1 2.1 0 0 0 0 .4H65.8v-4.1H31.6v4.2H19.4a12 12 0 0 0-12 12v92.8a12 12 0 0 0 12 12h147.2a12 12 0 0 0 12-12V27.1a12 12 0 0 0-11.2-12zm-142 23a6.2 6.2 0 1 1 6.2-6.2 6.2 6.2 0 0 1-6.2 6.2zM137.6 9.4a3.1 3.1 0 0 1 3.1-3.1h19.1a3.1 3.1 0 0 1 3.2 3.1v2.2a3.1 3.1 0 0 1-3.1 3.1h-19.1a3.1 3.1 0 0 1-3.1-3.1zm-20.8 105.7a41.6 41.6 0 1 1 41.6-41.6 41.6 41.6 0 0 1-41.6 41.6z"/><circle cx="122.8" cy="62.8" r="6"/><circle cx="109.3" cy="88" r="2.2"/></symbol><symbol id="user-design" viewBox="0 0 186 135.9"><g id="mNvNSE"><path d="M93 135.9H29a19.5 19.5 0 0 1-3.5-.3c-3.3-.6-4.9-2.8-4.4-6.1 3.7-23 15.5-40.6 35.4-52.7 2.6-1.6 2.6-1.5 4.8.5a46.4 46.4 0 0 0 25.5 11.4c13.5 1.7 25.6-1.8 36.3-10.2l.6-.5c3.3-2.8 3.4-2.9 7.1-.5 18.1 11.5 29.4 27.8 33.6 49a25.6 25.6 0 0 1 .5 3.9 4.7 4.7 0 0 1-4 5.1 20.1 20.1 0 0 1-3.9.4z"/><path d="M134 41c.2 23-19.1 41.1-41 41.1S52 64 52 41.1A41.3 41.3 0 0 1 93 0c22.3 0 41.2 18.4 41 41z"/></g></symbol><symbol id="behance" viewBox="0 0 115.6 72"><path d="M2.5 1.6H35a31 31 0 0 1 10.5 1.6C50.3 4.9 54 8 55.6 12.9a18.6 18.6 0 0 1-.7 14.6 12.6 12.6 0 0 1-5.3 5.2l-1.3.7 2.9 1.5A14.5 14.5 0 0 1 58.3 45a20.9 20.9 0 0 1-1.6 13.8 18.7 18.7 0 0 1-11.3 10 32.4 32.4 0 0 1-10 1.5H2.5zm15.8 56.7h.3c5.9-.1 11.9 0 17.8-.2a7.8 7.8 0 0 0 5.7-2.7c2.1-2.4 2.4-5.3 2-8.4a6.6 6.6 0 0 0-4.1-5.7 12.9 12.9 0 0 0-4.5-1.1c-5.4-.2-10.9-.1-16.3-.2-.8 0-1 .3-1 1v16.4c.1.4.1.6.1.9zm0-44.7v14.2c0 .8.2 1 1 1h13.4a23.7 23.7 0 0 0 4.5-.5 6.9 6.9 0 0 0 4.3-2.5 8.2 8.2 0 0 0 1.2-6.3c-.4-2.6-1.8-4.4-4.4-5a35.2 35.2 0 0 0-5.7-.8c-3.4-.1-6.8-.1-10.2-.1zm94.8 33.7H77.2c.1.9.1 1.6.2 2.4.7 4.6 3.1 7.9 7.7 9.2a13.3 13.3 0 0 0 10.1-.7 7.7 7.7 0 0 0 3.4-3.3 1.8 1.8 0 0 1 1.8-1.1h12a12.7 12.7 0 0 1-2.4 6 21.7 21.7 0 0 1-13.6 9.3A29.2 29.2 0 0 1 78.7 68c-7.2-2.9-12.1-7.9-13.7-15.7a38.7 38.7 0 0 1 .6-18.5 21.3 21.3 0 0 1 8.1-11.6c4.8-3.5 10.2-4.7 16-4.5a25.3 25.3 0 0 1 12.9 3.6 21.5 21.5 0 0 1 7.6 8.7 26.8 26.8 0 0 1 2.6 10.4 8.4 8.4 0 0 0 .2.9zm-13.5-8.6c-.2-3.9-1.6-7.1-5.1-9a11.7 11.7 0 0 0-12 .2c-3.2 1.9-4.4 5.2-4.9 8.8zm2.7-34.2v6.7H74.8V4.5z"/></symbol><symbol id="camera" viewBox="0 0 186 135.9"><circle cx="116.8" cy="73.5" r="25.1"/><path d="M167.4 15.1a2.4 2.4 0 0 0 0-.5V7.2a3.1 3.1 0 0 0-3.1-3.1h-28a3.1 3.1 0 0 0-3.1 3.1v7.4a2.1 2.1 0 0 0 0 .4H65.8v-4.1H31.6v4.2H19.4a12 12 0 0 0-12 12v92.8a12 12 0 0 0 12 12h147.2a12 12 0 0 0 12-12V27.1a12 12 0 0 0-11.2-12zm-142 23a6.2 6.2 0 1 1 6.2-6.2 6.2 6.2 0 0 1-6.2 6.2zM137.6 9.4a3.1 3.1 0 0 1 3.1-3.1h19.1a3.1 3.1 0 0 1 3.2 3.1v2.2a3.1 3.1 0 0 1-3.1 3.1h-19.1a3.1 3.1 0 0 1-3.1-3.1zm-20.8 105.7a41.6 41.6 0 1 1 41.6-41.6 41.6 41.6 0 0 1-41.6 41.6z"/><circle cx="122.8" cy="62.8" r="6"/><circle cx="109.3" cy="88" r="2.2"/></symbol><symbol id="facebook" viewBox="0 0 68.7 72"><path d="M1 65.9V6a3.6 3.6 0 0 1 3-3.1h60.8a3.7 3.7 0 0 1 2.9 3.7v59a4.2 4.2 0 0 1-.1.9 3.6 3.6 0 0 1-3.7 2.9H47.5c-.3 0-.4-.1-.4-.4V43.9c0-.3.1-.4.4-.4h8.3l1.2-10h-9.6c-.3 0-.4-.1-.4-.3v-5.4c0-1.8.1-1.5.1-2.2a3.2 3.2 0 0 1 2.5-3l2.4-.3h5.3v-8.7c0-.2 0-.3-.2-.4l-3.3-.2h-4.4a14.3 14.3 0 0 0-3.9.5 11.1 11.1 0 0 0-7.2 5.3 13.7 13.7 0 0 0-1.7 6.6c-.1 2.6 0 5.3 0 7.9 0 .4 0 .4-.4.4h-8.3v9.9h8.3c.3 0 .4.1.4.4v25c0 .3-.1.4-.4.4H4.8a3.7 3.7 0 0 1-3.7-2.9z"/><path fill="#fff" d="M1 65.9v.5a3.7 3.7 0 0 0 3.7 2.9h31.5c.3 0 .4-.1.4-.4v-25c0-.3-.1-.4-.4-.4h-8.3v-10h8.3c.4 0 .4 0 .4-.4v-7.9a13.7 13.7 0 0 1 1.7-6.6 11.1 11.1 0 0 1 7.2-5.3 14.3 14.3 0 0 1 3.9-.5h4.4l3.3.2c.3 0 .2.2.2.4v8.7h-5.2l-2.4.3a3.2 3.2 0 0 0-2.5 3c-.1.7-.1 1.5-.1 2.2V33c0 .3.1.3.4.3H57l-1.3 10.3h-8.2c-.3 0-.4 0-.4.4v25.1c0 .3.1.4.4.4h16.4a3.6 3.6 0 0 0 3.7-2.9 4.2 4.2 0 0 0 .1-.9v-59A3.7 3.7 0 0 0 64.8 3h3v66.7H1zM4.5 2.7H4A3.6 3.6 0 0 0 1.1 6V2.7z"/></symbol><symbol id="insta" viewBox="0 0 96 96"><path d="M47.9 10.4c12.3 0 13.7 0 18.5.3a25.5 25.5 0 0 1 8.6 1.6 14.3 14.3 0 0 1 5.3 3.5 14.3 14.3 0 0 1 3.5 5.3 25.5 25.5 0 0 1 1.6 8.5c.3 4.8.3 6.3.3 18.5s0 13.7-.3 18.5a25.5 25.5 0 0 1-1.6 8.5 15.2 15.2 0 0 1-8.7 8.7 25.5 25.5 0 0 1-8.7 1.5c-4.8.3-6.3.3-18.5.3s-13.7 0-18.5-.3a25.5 25.5 0 0 1-8.5-1.6 14.3 14.3 0 0 1-5.3-3.5 14.3 14.3 0 0 1-3.5-5.3 25.5 25.5 0 0 1-1.6-8.5c-.3-4.8-.3-6.3-.3-18.5s0-13.7.3-18.5a25.5 25.5 0 0 1 1.6-8.5 14.3 14.3 0 0 1 3.5-5.3 14.3 14.3 0 0 1 5.3-3.6 25.5 25.5 0 0 1 8.5-1.3c4.8-.3 6.3-.3 18.5-.3m0-8.3c-12.5 0-14 0-18.9.3a33.7 33.7 0 0 0-11.2 2.1 22.5 22.5 0 0 0-8.1 5.4A22.5 22.5 0 0 0 4.3 18a33.7 33.7 0 0 0-2 11.1c-.2 4.9-.2 6.5-.2 18.9s0 14 .3 18.9a33.7 33.7 0 0 0 2.1 11.2 22.5 22.5 0 0 0 5.3 8.1 22.5 22.5 0 0 0 8.1 5.3 33.7 33.7 0 0 0 11.2 2.1c4.9.3 6.4.3 18.9.3s14 0 18.9-.3a33.7 33.7 0 0 0 11.2-2.1 23.5 23.5 0 0 0 13.4-13.4 33.7 33.7 0 0 0 2.1-11.2c.3-4.9.3-6.4.3-18.9s0-14-.3-18.9A33.7 33.7 0 0 0 91.5 18a22.5 22.5 0 0 0-5.3-8.1 22.5 22.5 0 0 0-8.1-5.3 33.7 33.7 0 0 0-11.2-2.2c-5-.3-6.4-.3-19-.3z"/><path d="M47.9 24.4A23.6 23.6 0 1 0 71.5 48a23.6 23.6 0 0 0-23.6-23.6zm0 38.9A15.3 15.3 0 1 1 63.3 48a15.3 15.3 0 0 1-15.4 15.3z"/><circle cx="72.5" cy="23.5" r="5.5"/></symbol><symbol id="user-design" viewBox="0 0 186 135.9"><g id="mNvNSE"><path d="M93 135.9H29a19.5 19.5 0 0 1-3.5-.3c-3.3-.6-4.9-2.8-4.4-6.1 3.7-23 15.5-40.6 35.4-52.7 2.6-1.6 2.6-1.5 4.8.5a46.4 46.4 0 0 0 25.5 11.4c13.5 1.7 25.6-1.8 36.3-10.2l.6-.5c3.3-2.8 3.4-2.9 7.1-.5 18.1 11.5 29.4 27.8 33.6 49a25.6 25.6 0 0 1 .5 3.9 4.7 4.7 0 0 1-4 5.1 20.1 20.1 0 0 1-3.9.4z"/><path d="M134 41c.2 23-19.1 41.1-41 41.1S52 64 52 41.1A41.3 41.3 0 0 1 93 0c22.3 0 41.2 18.4 41 41z"/></g></symbol></svg>