<svg xmlns="http://www.w3.org/2000/svg" id="camera" width="2.6in" height="1.9in" viewBox="0 0 186 135.9"><g id="mNvNSE"><path d="M93 135.9H29a19.5 19.5 0 0 1-3.5-.3c-3.3-.6-4.9-2.8-4.4-6.1 3.7-23 15.5-40.6 35.4-52.7 2.6-1.6 2.6-1.5 4.8.5a46.4 46.4 0 0 0 25.5 11.4c13.5 1.7 25.6-1.8 36.3-10.2l.6-.5c3.3-2.8 3.4-2.9 7.1-.5 18.1 11.5 29.4 27.8 33.6 49a25.6 25.6 0 0 1 .5 3.9 4.7 4.7 0 0 1-4 5.1 20.1 20.1 0 0 1-3.9.4z"/><path d="M134 41c.2 23-19.1 41.1-41 41.1S52 64 52 41.1A41.3 41.3 0 0 1 93 0c22.3 0 41.2 18.4 41 41z"/></g></svg>