<svg xmlns="http://www.w3.org/2000/svg" width="2in" height="144" viewBox="0 0 142 107"><path d="M11.8 19.2h34a32.4 32.4 0 0 1 11 1.6c5 1.8 8.8 5 10.6 10.2a19.4 19.4 0 0 1-.8 15.2 13.1 13.1 0 0 1-5.6 5.5l-1.3.8 3 1.5a15.2 15.2 0 0 1 7.4 10.6A21.9 21.9 0 0 1 68.5 79a19.5 19.5 0 0 1-11.7 10.5A33.8 33.8 0 0 1 46.3 91H11.8zm16.6 59.3h.3c6.2-.1 12.4 0 18.6-.2a8.1 8.1 0 0 0 6-2.8c2.2-2.6 2.5-5.6 2.1-8.8a6.9 6.9 0 0 0-4.3-6 13.5 13.5 0 0 0-4.7-1.2c-5.7-.2-11.4-.1-17.1-.2-.9 0-1 .3-1 1.1v17.2c.1.3.1.6.1.9zm.1-46.8c0 .4-.1.7-.1.9v13.9c0 .8.2 1 1 1h14a24.8 24.8 0 0 0 4.7-.6 7.2 7.2 0 0 0 4.5-2.6 8.6 8.6 0 0 0 1.4-6.5c-.4-2.7-1.8-4.6-4.6-5.2a36.7 36.7 0 0 0-5.9-.8c-3.6-.1-7.1-.1-10.7-.1zM127.4 67H89.8c.1.9.1 1.7.3 2.5.8 4.8 3.3 8.2 8 9.6a13.9 13.9 0 0 0 10.6-.7 8 8 0 0 0 3.5-3.4 1.8 1.8 0 0 1 1.9-1.1h12.5a13.2 13.2 0 0 1-2.5 6.3 22.7 22.7 0 0 1-14.3 9.7 30.5 30.5 0 0 1-18.4-1.2c-7.5-3-12.6-8.2-14.2-16.4a40.4 40.4 0 0 1 .6-19.3 22.2 22.2 0 0 1 8.5-12.1c5-3.6 10.7-4.9 16.7-4.7a26.4 26.4 0 0 1 13.5 3.8 22.4 22.4 0 0 1 8 9.1 28 28 0 0 1 2.7 10.8 8.8 8.8 0 0 0 .2 1zm-14.1-9c-.2-4.1-1.7-7.5-5.4-9.4a12.3 12.3 0 0 0-12.6.2c-3.3 2-4.5 5.4-5.2 9.2zm2.8-35.7v7H87.3v-7z"/></svg>