<svg id="Layer_1" data-name="Layer 1" xmlns="http://www.w3.org/2000/svg" viewBox="0 0 223.6 43.6"><title>db-icons</title><path d="M11.41,10.58h8.68v2.16H17.93v2.17h2.15v2.17H17.93v2.17h2.16v2.17H17.92c0,.14,0,.27,0,.4s0,.27,0,.4a.15.15,0,0,0,.06.11,6.5,6.5,0,0,1,2.71,3.13,6.52,6.52,0,0,1-.1,5.19,6.43,6.43,0,0,1-3.87,3.47,5.84,5.84,0,0,1-2.39.32,6.42,6.42,0,0,1-5.66-4,5.82,5.82,0,0,1-.49-2A6.43,6.43,0,0,1,9.51,24a6.24,6.24,0,0,1,1.82-1.61.16.16,0,0,0,.08-.16q0-5.73,0-11.46Zm2.17,2.17V18q0,2.77,0,5.54a.14.14,0,0,1-.09.15l-.77.37a4.19,4.19,0,0,0-1.5,1.24,4.24,4.24,0,0,0-.83,3.35,4.17,4.17,0,0,0,1.55,2.65,4.22,4.22,0,0,0,3.27.93,4.1,4.1,0,0,0,2.4-1.12,4.34,4.34,0,0,0-.47-6.73,8.59,8.59,0,0,0-1.28-.68.17.17,0,0,1-.11-.19q0-5.32,0-10.64v-.14Z"/><g id="McFAAN"><path d="M92.82,22.25c0-.18-.05-.36-.08-.53a8.77,8.77,0,0,0-.66-2.4,2.69,2.69,0,0,0-.39-.6.78.78,0,0,0-1-.15,4.09,4.09,0,0,0-1,.85,13.07,13.07,0,0,0-2,3.13,18.89,18.89,0,0,0-1.39,4.19A18.32,18.32,0,0,0,86,29.36q0,.68-.06,1.37a1,1,0,0,0,1,1H89a4.43,4.43,0,0,0,2.35-.64A3.72,3.72,0,0,0,92.94,29a4.21,4.21,0,0,0,.17-1.1c0-.62,0-1.24,0-1.86h0a5.05,5.05,0,0,0-.64.49c-.84.88-1.65,1.78-2.48,2.67l-.19.2L88.26,28,90.06,26l-1.39-.49.67-1.94.81.28,1.48.52a.19.19,0,0,0,.17,0l3.1-2.2a.61.61,0,0,0,.26-.5q0-5.14,0-10.27v-.14h2q0,5.31,0,10.61a.22.22,0,0,0,.09.18l3.26,2.32a.18.18,0,0,0,.17,0l2.22-.78.06,0,.67,1.93L102.3,26,104.1,28l-1.51,1.4-.08-.1c-.88-.95-1.75-1.9-2.64-2.84A4.51,4.51,0,0,0,99.3,26l0,0c0,.29,0,.57,0,.86s0,.82,0,1.23a3.68,3.68,0,0,0,2,3.18,4.52,4.52,0,0,0,2.07.47c.68,0,1.36,0,2,0a1.07,1.07,0,0,0,1-1,21.89,21.89,0,0,0-.19-2.62,18.87,18.87,0,0,0-2.15-6.58,10.3,10.3,0,0,0-1.69-2.34,4.75,4.75,0,0,0-.71-.58.79.79,0,0,0-1,.15,3.84,3.84,0,0,0-.67,1.4A10.72,10.72,0,0,0,99.58,22c0,.09,0,1.76,0,1.86-.15-.11-.29,0-.44-.08s-.54-.47-.81-.66c0,0-.06-1.81-.06-1.86,0-.77,0-1.55,0-2.32a.28.28,0,0,1,0-.1,4.87,4.87,0,0,1,.94-1.56,2.62,2.62,0,0,1,2.15-.88,3.65,3.65,0,0,1,1.45.51A8,8,0,0,1,104.9,19a13.06,13.06,0,0,1,.93,1.44A21.3,21.3,0,0,1,108,26.33a21.82,21.82,0,0,1,.36,2.32,15.86,15.86,0,0,1,.1,2.25,2.93,2.93,0,0,1-1.17,2.23,3,3,0,0,1-1.94.65h-2a6.22,6.22,0,0,1-3.64-1.12,5.88,5.88,0,0,1-2.2-3.08,5.05,5.05,0,0,1-.25-1.45c0-.93,0-1.86,0-2.78,0-.24,0-.48,0-.73a.17.17,0,0,0-.06-.12l-1-.68a.11.11,0,0,0-.13,0l-1,.68a.14.14,0,0,0-.06.14c0,1,.05,2,.06,3a6.18,6.18,0,0,1-.88,3.3A5.88,5.88,0,0,1,91,33.48a5.25,5.25,0,0,1-1.5.27c-.93,0-1.86,0-2.78,0a2.88,2.88,0,0,1-2.22-1.2,3,3,0,0,1-.62-1.93,23.66,23.66,0,0,1,.16-2.42,22.09,22.09,0,0,1,1.52-5.8,15.93,15.93,0,0,1,2.16-3.8,7.32,7.32,0,0,1,1.84-1.73,2.78,2.78,0,0,1,2.3-.42,2.83,2.83,0,0,1,1.38.87,5,5,0,0,1,.86,1.47.41.41,0,0,1,0,.13c0,.77,0,3.12,0,3.89a3.41,3.41,0,0,1,0,.62c-.4.29-.71,0-1.11.25C93,23.71,92.84,22.24,92.82,22.25Z"/></g><g id="Gs4y5P"><path d="M58.89,23.28l-.64,1.66c-1,2.62-2,5.23-3,7.86a.93.93,0,0,1-1.58.33,1.25,1.25,0,0,1-.23-.61l-1-5.28-.86-4.77-.91-5,0-.08-.22,1.05L49.28,24q-.42,2-.83,4.07a.9.9,0,0,1-.64.76.85.85,0,0,1-.92-.24,1.17,1.17,0,0,1-.22-.38q-1-2.54-1.91-5.09L44.69,23c-.28.55-.55,1.09-.81,1.62a1,1,0,0,1-.49.54,1,1,0,0,1-.37.09H39.33a.34.34,0,0,0-.33.17,1.82,1.82,0,1,1,.07-2.05l0,.07h3.16a.21.21,0,0,0,.23-.14q.74-1.5,1.49-3a.9.9,0,0,1,1.49-.22,1.19,1.19,0,0,1,.21.37q.77,2,1.53,4.06l.07.17.14-.67,1.15-5.59,1.15-5.59c0-.17.06-.33.1-.5a.9.9,0,0,1,1-.72.91.91,0,0,1,.84.77l1.14,6.32,1.27,7,.6,3.35s0,.07,0,.13l.5-1.3c.95-2.46,1.9-4.93,2.84-7.39a.93.93,0,0,1,1.33-.53,1,1,0,0,1,.42.53l1.82,4.87.23.62.61-1,.64-1a1,1,0,0,1,.9-.5h4.57a.21.21,0,0,0,.2-.11,1.81,1.81,0,0,1,2.15-.69,1.82,1.82,0,0,1-.23,3.47,1.8,1.8,0,0,1-1.91-.75.24.24,0,0,0-.23-.12h-4a.24.24,0,0,0-.24.13l-1.9,3a.91.91,0,0,1-1.33.3,1,1,0,0,1-.34-.47L59,23.45Z"/></g><path d="M124.94,27.77v3.75h3.75l11.06-11.06L136,16.71Zm17.71-10.21a1,1,0,0,0,0-1.41l-2.34-2.34a1,1,0,0,0-1.41,0l-1.83,1.83,3.75,3.75Z"/><path d="M174.25,14.52h-1v-2h-2v2h-8v-2h-2v2h-1a2,2,0,0,0-2,2v14a2,2,0,0,0,2,2h14a2,2,0,0,0,2-2v-14A2,2,0,0,0,174.25,14.52Zm0,16h-14v-11h14Zm-12-9h5v5h-5Z"/><path d="M214.62,18a2.27,2.27,0,0,1-2.27,2.27,1.93,1.93,0,0,1-.58-.08l-4,4a2,2,0,0,1,.08.59,2.27,2.27,0,0,1-4.53,0,2,2,0,0,1,.08-.59l-2.89-2.89a2.23,2.23,0,0,1-1.18,0l-5.16,5.17a1.93,1.93,0,0,1,.08.58,2.27,2.27,0,1,1-2.27-2.27,1.93,1.93,0,0,1,.58.08l5.17-5.16a2,2,0,0,1-.08-.59,2.27,2.27,0,0,1,4.53,0,2,2,0,0,1-.08.59L205,22.6a2.23,2.23,0,0,1,1.18,0l4-4a1.93,1.93,0,0,1-.08-.58,2.27,2.27,0,1,1,4.53,0Z"/></svg>