<svg xmlns="http://www.w3.org/2000/svg"><symbol id="behance" viewBox="0 0 115.6 72"><path d="M2.5 1.6H35a31 31 0 0 1 10.5 1.6C50.3 4.9 54 8 55.6 12.9a18.6 18.6 0 0 1-.7 14.6 12.6 12.6 0 0 1-5.3 5.2l-1.3.7 2.9 1.5A14.5 14.5 0 0 1 58.3 45a20.9 20.9 0 0 1-1.6 13.8 18.7 18.7 0 0 1-11.3 10 32.4 32.4 0 0 1-10 1.5H2.5zm15.8 56.7h.3c5.9-.1 11.9 0 17.8-.2a7.8 7.8 0 0 0 5.7-2.7c2.1-2.4 2.4-5.3 2-8.4a6.6 6.6 0 0 0-4.1-5.7 12.9 12.9 0 0 0-4.5-1.1c-5.4-.2-10.9-.1-16.3-.2-.8 0-1 .3-1 1v16.4c.1.4.1.6.1.9zm0-44.7v14.2c0 .8.2 1 1 1h13.4a23.7 23.7 0 0 0 4.5-.5 6.9 6.9 0 0 0 4.3-2.5 8.2 8.2 0 0 0 1.2-6.3c-.4-2.6-1.8-4.4-4.4-5a35.2 35.2 0 0 0-5.7-.8c-3.4-.1-6.8-.1-10.2-.1zm94.8 33.7H77.2c.1.9.1 1.6.2 2.4.7 4.6 3.1 7.9 7.7 9.2a13.3 13.3 0 0 0 10.1-.7 7.7 7.7 0 0 0 3.4-3.3 1.8 1.8 0 0 1 1.8-1.1h12a12.7 12.7 0 0 1-2.4 6 21.7 21.7 0 0 1-13.6 9.3A29.2 29.2 0 0 1 78.7 68c-7.2-2.9-12.1-7.9-13.7-15.7a38.7 38.7 0 0 1 .6-18.5 21.3 21.3 0 0 1 8.1-11.6c4.8-3.5 10.2-4.7 16-4.5a25.3 25.3 0 0 1 12.9 3.6 21.5 21.5 0 0 1 7.6 8.7 26.8 26.8 0 0 1 2.6 10.4 8.4 8.4 0 0 0 .2.9zm-13.5-8.6c-.2-3.9-1.6-7.1-5.1-9a11.7 11.7 0 0 0-12 .2c-3.2 1.9-4.4 5.2-4.9 8.8zm2.7-34.2v6.7H74.8V4.5z"/></symbol><symbol id="dashboard" viewBox="0 0 33.8 30.3"><path d="M7.1 4.2H17v9.91H7.1zm10.8 0h9.9v9.91h-9.9zM7.1 15H17v9.91H7.1zm10.8 0h9.9v9.91h-9.9z"/></symbol><symbol id="facebook" viewBox="0 0 68.7 72"><path d="M1 65.9V6a3.6 3.6 0 0 1 3-3.1h60.8a3.7 3.7 0 0 1 2.9 3.7v59a4.2 4.2 0 0 1-.1.9 3.6 3.6 0 0 1-3.7 2.9H47.5c-.3 0-.4-.1-.4-.4V43.9c0-.3.1-.4.4-.4h8.3l1.2-10h-9.6c-.3 0-.4-.1-.4-.3v-5.4c0-1.8.1-1.5.1-2.2a3.2 3.2 0 0 1 2.5-3l2.4-.3h5.3v-8.7c0-.2 0-.3-.2-.4l-3.3-.2h-4.4a14.3 14.3 0 0 0-3.9.5 11.1 11.1 0 0 0-7.2 5.3 13.7 13.7 0 0 0-1.7 6.6c-.1 2.6 0 5.3 0 7.9 0 .4 0 .4-.4.4h-8.3v9.9h8.3c.3 0 .4.1.4.4v25c0 .3-.1.4-.4.4H4.8a3.7 3.7 0 0 1-3.7-2.9z"/><path fill="#fff" d="M1 65.9v.5a3.7 3.7 0 0 0 3.7 2.9h31.5c.3 0 .4-.1.4-.4v-25c0-.3-.1-.4-.4-.4h-8.3v-10h8.3c.4 0 .4 0 .4-.4v-7.9a13.7 13.7 0 0 1 1.7-6.6 11.1 11.1 0 0 1 7.2-5.3 14.3 14.3 0 0 1 3.9-.5h4.4l3.3.2c.3 0 .2.2.2.4v8.7h-5.2l-2.4.3a3.2 3.2 0 0 0-2.5 3c-.1.7-.1 1.5-.1 2.2V33c0 .3.1.3.4.3H57l-1.3 10.3h-8.2c-.3 0-.4 0-.4.4v25.1c0 .3.1.4.4.4h16.4a3.6 3.6 0 0 0 3.7-2.9 4.2 4.2 0 0 0 .1-.9v-59A3.7 3.7 0 0 0 64.8 3h3v66.7H1zM4.5 2.7H4A3.6 3.6 0 0 0 1.1 6V2.7z"/></symbol><symbol id="insta" viewBox="0 0 96 96"><path d="M47.9 10.4c12.3 0 13.7 0 18.5.3a25.5 25.5 0 0 1 8.6 1.6 14.3 14.3 0 0 1 5.3 3.5 14.3 14.3 0 0 1 3.5 5.3 25.5 25.5 0 0 1 1.6 8.5c.3 4.8.3 6.3.3 18.5s0 13.7-.3 18.5a25.5 25.5 0 0 1-1.6 8.5 15.2 15.2 0 0 1-8.7 8.7 25.5 25.5 0 0 1-8.7 1.5c-4.8.3-6.3.3-18.5.3s-13.7 0-18.5-.3a25.5 25.5 0 0 1-8.5-1.6 14.3 14.3 0 0 1-5.3-3.5 14.3 14.3 0 0 1-3.5-5.3 25.5 25.5 0 0 1-1.6-8.5c-.3-4.8-.3-6.3-.3-18.5s0-13.7.3-18.5a25.5 25.5 0 0 1 1.6-8.5 14.3 14.3 0 0 1 3.5-5.3 14.3 14.3 0 0 1 5.3-3.6 25.5 25.5 0 0 1 8.5-1.3c4.8-.3 6.3-.3 18.5-.3m0-8.3c-12.5 0-14 0-18.9.3a33.7 33.7 0 0 0-11.2 2.1 22.5 22.5 0 0 0-8.1 5.4A22.5 22.5 0 0 0 4.3 18a33.7 33.7 0 0 0-2 11.1c-.2 4.9-.2 6.5-.2 18.9s0 14 .3 18.9a33.7 33.7 0 0 0 2.1 11.2 22.5 22.5 0 0 0 5.3 8.1 22.5 22.5 0 0 0 8.1 5.3 33.7 33.7 0 0 0 11.2 2.1c4.9.3 6.4.3 18.9.3s14 0 18.9-.3a33.7 33.7 0 0 0 11.2-2.1 23.5 23.5 0 0 0 13.4-13.4 33.7 33.7 0 0 0 2.1-11.2c.3-4.9.3-6.4.3-18.9s0-14-.3-18.9A33.7 33.7 0 0 0 91.5 18a22.5 22.5 0 0 0-5.3-8.1 22.5 22.5 0 0 0-8.1-5.3 33.7 33.7 0 0 0-11.2-2.2c-5-.3-6.4-.3-19-.3z"/><path d="M47.9 24.4A23.6 23.6 0 1 0 71.5 48a23.6 23.6 0 0 0-23.6-23.6zm0 38.9A15.3 15.3 0 1 1 63.3 48a15.3 15.3 0 0 1-15.4 15.3z"/><circle cx="72.5" cy="23.5" r="5.5"/></symbol><symbol id="rachel-hisko" viewBox="0 0 97.4 44.5"><path d="M28.2 41.3a1.6 1.6 0 0 1-1.3-.8c-3.3-5.4-7.9-6.5-13.7-3.2a1.8 1.8 0 0 1-1.9.1 1.5 1.5 0 0 1-.7-1.4c0-.7.4-1 1.7-2.1l5.5-4.7c4.9-4.4 13.8-15 12.2-20-.4-1.5-2.1-2.4-5-2.8-14.4-1.7-20.9 8.1-21 8.2a1.6 1.6 0 0 1-2.1.4 1.6 1.6 0 0 1-.4-2.1c.3-.4 7.7-11.4 23.9-9.4 4.1.4 6.6 2.1 7.5 4.9 2.7 8.5-13 22.9-13.1 23l-1.3 1.1c4.4-.3 8.2 2 11 6.5a1.5 1.5 0 0 1-.5 2 1.3 1.3 0 0 1-.8.3z"/><path d="M19.6 39.6a1.5 1.5 0 0 1-1.5-1.5c0-1.2-.8-16.3-1.1-20.6s-.4-7.1-.4-7.2a1.5 1.5 0 0 1 1.5-1.5 1.4 1.4 0 0 1 1.5 1.5s.1 3 .4 7 1.1 19.3 1.1 20.8a1.5 1.5 0 0 1-1.5 1.5zm14.2-1.1l-1.2-.2c-2-1.1-2-4.6-2-5.6a1.5 1.5 0 0 1 1.6-1.4 1.4 1.4 0 0 1 1.4 1.6 9.3 9.3 0 0 0 .3 2.6l.7-.5c2.8-2.4 4.5-2 6-.6l.6.4a5.6 5.6 0 0 0 1.8-.7 5.3 5.3 0 0 1 3.7-1 1.6 1.6 0 0 1 1.3 1.8 1.5 1.5 0 0 1-1.7 1.2c-.6-.1-1 .1-1.8.6a8 8 0 0 1-3.1 1.1 3.6 3.6 0 0 1-2.7-1.2l-.5-.3s-.4 0-1.7 1a4.3 4.3 0 0 1-2.7 1.2z"/><path d="M66.7 40.4h-.5C60.3 38 57.4 31.6 57 26h-.1l1 11.6a1.6 1.6 0 0 1-.8 1.5 1.4 1.4 0 0 1-1.6-.2L41.7 27.8l-5.8-.4c-2.6-.2-4.2-1.1-4.7-2.8a3.5 3.5 0 0 1 .7-2.9 4 4 0 0 1 3.4-1.5 8 8 0 0 1 4.5 2.2l3 2.5a39.6 39.6 0 0 0 10.9-1L52.2 7.4a1.4 1.4 0 0 1 1.3-1.6 1.5 1.5 0 0 1 1.7 1.3L56.6 23l.5-.2c.4-5.3 2.3-10.2 4.1-14.7.4-1 1.5-3.9 4.2-4s4.1 2.5 4.3 5c.4 6.7-4.2 12.5-9.7 15.5v.5c.1 4.8 2.4 10.5 7.3 12.4a1.5 1.5 0 0 1 .8 2 1.4 1.4 0 0 1-1.4.9zM46.5 27.9l8.1 6.6-.7-7.6a36.6 36.6 0 0 1-7.4 1zm-11.4-4.7a1.5 1.5 0 0 0-.9.4v.2c.1.2.6.5 2.1.6l1.5.2a4.2 4.2 0 0 0-2.6-1.4zM65.5 7.1c-.2 0-.8.2-1.5 2.1a55.1 55.1 0 0 0-3.7 11.7c3.8-2.7 6.7-6.9 6.4-11.6-.1-1.1-.7-2.2-1.2-2.2z"/><path d="M67.5 36.1a3.5 3.5 0 0 1-2.1-.8 1.5 1.5 0 0 1-.4-2 1.5 1.5 0 0 1 2.1-.4l.3.2.3-.2a5.2 5.2 0 0 1 1.1-.7l.3-.2c1.6-.9 3.7-2.1 6-1.6a8.4 8.4 0 0 1 2.5 1.3l1.1.7c2 .9 4.6 0 7.1-1s6.4-2.4 9.5-.9a1.6 1.6 0 0 1 .7 2 1.5 1.5 0 0 1-2.1.7c-1.9-1-4.6 0-7 .9s-6.4 2.5-9.5 1l-1.5-.9a3.7 3.7 0 0 0-1.5-.8c-1.2-.3-2.5.5-3.9 1.2l-.2.2-.9.5a2.9 2.9 0 0 1-1.9.8z"/></symbol></svg>