<svg xmlns="http://www.w3.org/2000/svg"><symbol id="behance" viewBox="0 0 115.6 72"><path d="M2.5 1.6H35a31 31 0 0 1 10.5 1.6C50.3 4.9 54 8 55.6 12.9a18.6 18.6 0 0 1-.7 14.6 12.6 12.6 0 0 1-5.3 5.2l-1.3.7 2.9 1.5A14.5 14.5 0 0 1 58.3 45a20.9 20.9 0 0 1-1.6 13.8 18.7 18.7 0 0 1-11.3 10 32.4 32.4 0 0 1-10 1.5H2.5zm15.8 56.7h.3c5.9-.1 11.9 0 17.8-.2a7.8 7.8 0 0 0 5.7-2.7c2.1-2.4 2.4-5.3 2-8.4a6.6 6.6 0 0 0-4.1-5.7 12.9 12.9 0 0 0-4.5-1.1c-5.4-.2-10.9-.1-16.3-.2-.8 0-1 .3-1 1v16.4c.1.4.1.6.1.9zm0-44.7v14.2c0 .8.2 1 1 1h13.4a23.7 23.7 0 0 0 4.5-.5 6.9 6.9 0 0 0 4.3-2.5 8.2 8.2 0 0 0 1.2-6.3c-.4-2.6-1.8-4.4-4.4-5a35.2 35.2 0 0 0-5.7-.8c-3.4-.1-6.8-.1-10.2-.1zm94.8 33.7H77.2c.1.9.1 1.6.2 2.4.7 4.6 3.1 7.9 7.7 9.2a13.3 13.3 0 0 0 10.1-.7 7.7 7.7 0 0 0 3.4-3.3 1.8 1.8 0 0 1 1.8-1.1h12a12.7 12.7 0 0 1-2.4 6 21.7 21.7 0 0 1-13.6 9.3A29.2 29.2 0 0 1 78.7 68c-7.2-2.9-12.1-7.9-13.7-15.7a38.7 38.7 0 0 1 .6-18.5 21.3 21.3 0 0 1 8.1-11.6c4.8-3.5 10.2-4.7 16-4.5a25.3 25.3 0 0 1 12.9 3.6 21.5 21.5 0 0 1 7.6 8.7 26.8 26.8 0 0 1 2.6 10.4 8.4 8.4 0 0 0 .2.9zm-13.5-8.6c-.2-3.9-1.6-7.1-5.1-9a11.7 11.7 0 0 0-12 .2c-3.2 1.9-4.4 5.2-4.9 8.8zm2.7-34.2v6.7H74.8V4.5z"/></symbol><symbol id="insta" viewBox="0 0 68.7 72"><path fill="#010101" d="M34.3 7.8c9.2 0 10.3 0 13.9.2a19.1 19.1 0 0 1 6.4 1.2 10.7 10.7 0 0 1 4 2.6 10.7 10.7 0 0 1 2.6 4 19.1 19.1 0 0 1 1.2 6.4c.2 3.6.2 4.7.2 13.9s0 10.3-.2 13.9a19.1 19.1 0 0 1-1.2 6.4 11.4 11.4 0 0 1-6.5 6.5 19.1 19.1 0 0 1-6.5 1.1c-3.6.2-4.7.2-13.9.2s-10.3 0-13.9-.2a19.1 19.1 0 0 1-6.4-1.2 10.7 10.7 0 0 1-4-2.6 10.7 10.7 0 0 1-2.6-4 19.1 19.1 0 0 1-1.2-6.4C6 46.2 6 45.1 6 35.9s0-10.3.2-13.9a19.1 19.1 0 0 1 1.2-6.4 10.7 10.7 0 0 1 2.6-4A10.7 10.7 0 0 1 14 9a19.1 19.1 0 0 1 6.4-1c3.6-.2 4.7-.2 13.9-.2m0-6.2c-9.4 0-10.5 0-14.2.2a25.3 25.3 0 0 0-8.4 1.6 16.9 16.9 0 0 0-6.1 4 16.9 16.9 0 0 0-4 6.1 25.3 25.3 0 0 0-1.5 8.3c-.2 3.7-.2 4.9-.2 14.2s0 10.5.2 14.2a25.3 25.3 0 0 0 1.6 8.4 16.9 16.9 0 0 0 4 6.1 16.9 16.9 0 0 0 6.1 4 25.3 25.3 0 0 0 8.4 1.6c3.7.2 4.8.2 14.2.2s10.5 0 14.2-.2a25.3 25.3 0 0 0 8.4-1.6 17.6 17.6 0 0 0 10-10.1 25.3 25.3 0 0 0 1.6-8.4c.2-3.7.2-4.8.2-14.2s0-10.5-.2-14.2a25.3 25.3 0 0 0-1.6-8.3 16.9 16.9 0 0 0-4-6.1 16.9 16.9 0 0 0-6.1-4 25.3 25.3 0 0 0-8.4-1.6c-3.7-.2-4.8-.2-14.2-.2z"/><path fill="#010101" d="M34.3 18.3A17.7 17.7 0 1 0 52 36a17.7 17.7 0 0 0-17.7-17.7zm0 29.2A11.5 11.5 0 1 1 45.8 36a11.5 11.5 0 0 1-11.5 11.5z"/><circle cx="52.7" cy="17.6" r="4.1" fill="#010101"/></symbol><symbol id="facebook" viewBox="0 0 68.7 72"><path d="M1 65.9V6a3.6 3.6 0 0 1 3-3.1h60.8a3.7 3.7 0 0 1 2.9 3.7v59a4.2 4.2 0 0 1-.1.9 3.6 3.6 0 0 1-3.7 2.9H47.5c-.3 0-.4-.1-.4-.4V43.9c0-.3.1-.4.4-.4h8.3l1.2-10h-9.6c-.3 0-.4-.1-.4-.3v-5.4c0-1.8.1-1.5.1-2.2a3.2 3.2 0 0 1 2.5-3l2.4-.3h5.3v-8.7c0-.2 0-.3-.2-.4l-3.3-.2h-4.4a14.3 14.3 0 0 0-3.9.5 11.1 11.1 0 0 0-7.2 5.3 13.7 13.7 0 0 0-1.7 6.6c-.1 2.6 0 5.3 0 7.9 0 .4 0 .4-.4.4h-8.3v9.9h8.3c.3 0 .4.1.4.4v25c0 .3-.1.4-.4.4H4.8a3.7 3.7 0 0 1-3.7-2.9z"/><path fill="#fff" d="M1 65.9v.5a3.7 3.7 0 0 0 3.7 2.9h31.5c.3 0 .4-.1.4-.4v-25c0-.3-.1-.4-.4-.4h-8.3v-10h8.3c.4 0 .4 0 .4-.4v-7.9a13.7 13.7 0 0 1 1.7-6.6 11.1 11.1 0 0 1 7.2-5.3 14.3 14.3 0 0 1 3.9-.5h4.4l3.3.2c.3 0 .2.2.2.4v8.7h-5.2l-2.4.3a3.2 3.2 0 0 0-2.5 3c-.1.7-.1 1.5-.1 2.2V33c0 .3.1.3.4.3H57l-1.3 10.3h-8.2c-.3 0-.4 0-.4.4v25.1c0 .3.1.4.4.4h16.4a3.6 3.6 0 0 0 3.7-2.9 4.2 4.2 0 0 0 .1-.9v-59A3.7 3.7 0 0 0 64.8 3h3v66.7H1zM4.5 2.7H4A3.6 3.6 0 0 0 1.1 6V2.7z"/></symbol></svg>