<svg xmlns="http://www.w3.org/2000/svg"><symbol id="phone" viewBox="0 0 114.67 208.66"><defs><style>.cls-1{fill:#fff}</style></defs><rect width="99.89" height="199.09" x="7.53" y="3.57" rx="12" ry="12"/><path d="M14.93 18.88h85.44v151.1H14.93z" class="cls-1"/><circle cx="57.48" cy="186.19" r="9.5" class="cls-1"/><circle cx="57.49" cy="186.24" r="6.15"/></symbol><symbol id="camera" viewBox="0 0 185.99 135.91"><defs><style>.cls-1{fill:#fff}.cls-2{fill:#231f20}</style></defs><rect width="171.2" height="116.8" x="7.4" y="15.06" rx="12" ry="12"/><path d="M7.4 48.32h171.2v6.99H7.4z" class="cls-1"/><circle cx="116.79" cy="73.46" r="41.6" class="cls-1"/><circle cx="116.79" cy="73.46" r="25.14"/><path d="M31.62 10.9h34.2v4.16h-34.2z" class="cls-2"/><rect width="34.2" height="13.7" x="133.22" y="4.05" class="cls-2" rx="3.13" ry="3.13"/><rect width="25.36" height="8.46" x="137.64" y="6.23" class="cls-1" rx="3.13" ry="3.13"/><circle cx="25.42" cy="31.86" r="6.2" class="cls-1"/><circle cx="122.78" cy="62.79" r="5.98" class="cls-1"/><circle cx="109.3" cy="88.03" r="2.24" class="cls-1"/></symbol></svg>