<svg xmlns="http://www.w3.org/2000/svg" width="1.3in" height="1.3in" viewBox="0 0 96 96"><path d="M47.9 10.4c12.3 0 13.7 0 18.5.3a25.5 25.5 0 0 1 8.6 1.6 14.3 14.3 0 0 1 5.3 3.5 14.3 14.3 0 0 1 3.5 5.3 25.5 25.5 0 0 1 1.6 8.5c.3 4.8.3 6.3.3 18.5s0 13.7-.3 18.5a25.5 25.5 0 0 1-1.6 8.5 15.2 15.2 0 0 1-8.7 8.7 25.5 25.5 0 0 1-8.7 1.5c-4.8.3-6.3.3-18.5.3s-13.7 0-18.5-.3a25.5 25.5 0 0 1-8.5-1.6 14.3 14.3 0 0 1-5.3-3.5 14.3 14.3 0 0 1-3.5-5.3 25.5 25.5 0 0 1-1.6-8.5c-.3-4.8-.3-6.3-.3-18.5s0-13.7.3-18.5a25.5 25.5 0 0 1 1.6-8.5 14.3 14.3 0 0 1 3.5-5.3 14.3 14.3 0 0 1 5.3-3.6 25.5 25.5 0 0 1 8.5-1.3c4.8-.3 6.3-.3 18.5-.3m0-8.3c-12.5 0-14 0-18.9.3a33.7 33.7 0 0 0-11.2 2.1 22.5 22.5 0 0 0-8.1 5.4A22.5 22.5 0 0 0 4.3 18a33.7 33.7 0 0 0-2 11.1c-.2 4.9-.2 6.5-.2 18.9s0 14 .3 18.9a33.7 33.7 0 0 0 2.1 11.2 22.5 22.5 0 0 0 5.3 8.1 22.5 22.5 0 0 0 8.1 5.3 33.7 33.7 0 0 0 11.2 2.1c4.9.3 6.4.3 18.9.3s14 0 18.9-.3a33.7 33.7 0 0 0 11.2-2.1 23.5 23.5 0 0 0 13.4-13.4 33.7 33.7 0 0 0 2.1-11.2c.3-4.9.3-6.4.3-18.9s0-14-.3-18.9A33.7 33.7 0 0 0 91.5 18a22.5 22.5 0 0 0-5.3-8.1 22.5 22.5 0 0 0-8.1-5.3 33.7 33.7 0 0 0-11.2-2.2c-5-.3-6.4-.3-19-.3z"/><path d="M47.9 24.4A23.6 23.6 0 1 0 71.5 48a23.6 23.6 0 0 0-23.6-23.6zm0 38.9A15.3 15.3 0 1 1 63.3 48a15.3 15.3 0 0 1-15.4 15.3z"/><circle cx="72.5" cy="23.5" r="5.5"/></svg>