<svg xmlns="http://www.w3.org/2000/svg" width="95.6" height="88.1" viewBox="0 0 95.6 88.1"><path d="M47.2 14.5c9.6 0 10.8 0 14.5.2a19.9 19.9 0 0 1 6.8 1.3 11.9 11.9 0 0 1 6.8 6.8 19.9 19.9 0 0 1 1.2 6.7c.2 3.8.2 4.9.2 14.5s0 10.8-.2 14.5a19.9 19.9 0 0 1-1.2 6.7 11.9 11.9 0 0 1-6.8 6.8 19.9 19.9 0 0 1-6.7 1.2c-3.8.2-4.9.2-14.5.2s-10.8 0-14.5-.2a19.9 19.9 0 0 1-6.8-1.1 11.9 11.9 0 0 1-6.8-6.8 19.9 19.9 0 0 1-1.2-6.7c-.2-3.8-.2-4.9-.2-14.5s0-10.8.2-14.5a19.9 19.9 0 0 1 1.2-6.7A11.9 11.9 0 0 1 26 16a19.9 19.9 0 0 1 6.7-1.2c3.8-.2 4.9-.2 14.5-.2m0-6.5c-9.8 0-11 0-14.8.2a26.4 26.4 0 0 0-8.7 1.7 18.4 18.4 0 0 0-10.6 10.5 26.4 26.4 0 0 0-1.7 8.7c-.2 3.8-.2 5.1-.2 14.8s0 11 .2 14.8a26.4 26.4 0 0 0 1.7 8.7 18.4 18.4 0 0 0 10.6 10.6 26.4 26.4 0 0 0 8.7 1.7c3.8.2 5.1.2 14.8.2s11 0 14.8-.2a26.4 26.4 0 0 0 8.7-1.7 18.4 18.4 0 0 0 10.7-10.5 26.4 26.4 0 0 0 1.6-8.7c.2-3.8.2-5.1.2-14.8s0-11-.2-14.8a26.4 26.4 0 0 0-1.7-8.7A18.4 18.4 0 0 0 70.8 9.9a26.4 26.4 0 0 0-8.7-1.7C58.2 8.1 57 8 47.2 8z"/><path d="M47.2 25.5A18.5 18.5 0 1 0 65.7 44a18.5 18.5 0 0 0-18.5-18.5zm0 30.5a12 12 0 1 1 12-12 12 12 0 0 1-12 12z"/><circle cx="66.5" cy="24.8" r="4.3"/></svg>