<svg xmlns="http://www.w3.org/2000/svg" width="96" height="96" viewBox="0 0 68.7 72"><path fill="#010101" d="M34.3 7.8c9.2 0 10.3 0 13.9.2a19.1 19.1 0 0 1 6.4 1.2 10.7 10.7 0 0 1 4 2.6 10.7 10.7 0 0 1 2.6 4 19.1 19.1 0 0 1 1.2 6.4c.2 3.6.2 4.7.2 13.9s0 10.3-.2 13.9a19.1 19.1 0 0 1-1.2 6.4 11.4 11.4 0 0 1-6.5 6.5 19.1 19.1 0 0 1-6.5 1.1c-3.6.2-4.7.2-13.9.2s-10.3 0-13.9-.2a19.1 19.1 0 0 1-6.4-1.2 10.7 10.7 0 0 1-4-2.6 10.7 10.7 0 0 1-2.6-4 19.1 19.1 0 0 1-1.2-6.4C6 46.2 6 45.1 6 35.9s0-10.3.2-13.9a19.1 19.1 0 0 1 1.2-6.4 10.7 10.7 0 0 1 2.6-4A10.7 10.7 0 0 1 14 9a19.1 19.1 0 0 1 6.4-1c3.6-.2 4.7-.2 13.9-.2m0-6.2c-9.4 0-10.5 0-14.2.2a25.3 25.3 0 0 0-8.4 1.6 16.9 16.9 0 0 0-6.1 4 16.9 16.9 0 0 0-4 6.1 25.3 25.3 0 0 0-1.5 8.3c-.2 3.7-.2 4.9-.2 14.2s0 10.5.2 14.2a25.3 25.3 0 0 0 1.6 8.4 16.9 16.9 0 0 0 4 6.1 16.9 16.9 0 0 0 6.1 4 25.3 25.3 0 0 0 8.4 1.6c3.7.2 4.8.2 14.2.2s10.5 0 14.2-.2a25.3 25.3 0 0 0 8.4-1.6 17.6 17.6 0 0 0 10-10.1 25.3 25.3 0 0 0 1.6-8.4c.2-3.7.2-4.8.2-14.2s0-10.5-.2-14.2a25.3 25.3 0 0 0-1.6-8.3 16.9 16.9 0 0 0-4-6.1 16.9 16.9 0 0 0-6.1-4 25.3 25.3 0 0 0-8.4-1.6c-3.7-.2-4.8-.2-14.2-.2z"/><path fill="#010101" d="M34.3 18.3A17.7 17.7 0 1 0 52 36a17.7 17.7 0 0 0-17.7-17.7zm0 29.2A11.5 11.5 0 1 1 45.8 36a11.5 11.5 0 0 1-11.5 11.5z"/><circle cx="52.7" cy="17.6" r="4.1" fill="#010101"/></svg>