<svg xmlns="http://www.w3.org/2000/svg"><symbol id="rachel-hisko" viewBox="0 0 97.4 44.5"><path d="M28.2 41.3a1.6 1.6 0 0 1-1.3-.8c-3.3-5.4-7.9-6.5-13.7-3.2a1.8 1.8 0 0 1-1.9.1 1.5 1.5 0 0 1-.7-1.4c0-.7.4-1 1.7-2.1l5.5-4.7c4.9-4.4 13.8-15 12.2-20-.4-1.5-2.1-2.4-5-2.8-14.4-1.7-20.9 8.1-21 8.2a1.6 1.6 0 0 1-2.1.4 1.6 1.6 0 0 1-.4-2.1c.3-.4 7.7-11.4 23.9-9.4 4.1.4 6.6 2.1 7.5 4.9 2.7 8.5-13 22.9-13.1 23l-1.3 1.1c4.4-.3 8.2 2 11 6.5a1.5 1.5 0 0 1-.5 2 1.3 1.3 0 0 1-.8.3z"/><path d="M19.6 39.6a1.5 1.5 0 0 1-1.5-1.5c0-1.2-.8-16.3-1.1-20.6s-.4-7.1-.4-7.2a1.5 1.5 0 0 1 1.5-1.5 1.4 1.4 0 0 1 1.5 1.5s.1 3 .4 7 1.1 19.3 1.1 20.8a1.5 1.5 0 0 1-1.5 1.5zm14.2-1.1l-1.2-.2c-2-1.1-2-4.6-2-5.6a1.5 1.5 0 0 1 1.6-1.4 1.4 1.4 0 0 1 1.4 1.6 9.3 9.3 0 0 0 .3 2.6l.7-.5c2.8-2.4 4.5-2 6-.6l.6.4a5.6 5.6 0 0 0 1.8-.7 5.3 5.3 0 0 1 3.7-1 1.6 1.6 0 0 1 1.3 1.8 1.5 1.5 0 0 1-1.7 1.2c-.6-.1-1 .1-1.8.6a8 8 0 0 1-3.1 1.1 3.6 3.6 0 0 1-2.7-1.2l-.5-.3s-.4 0-1.7 1a4.3 4.3 0 0 1-2.7 1.2z"/><path d="M66.7 40.4h-.5C60.3 38 57.4 31.6 57 26h-.1l1 11.6a1.6 1.6 0 0 1-.8 1.5 1.4 1.4 0 0 1-1.6-.2L41.7 27.8l-5.8-.4c-2.6-.2-4.2-1.1-4.7-2.8a3.5 3.5 0 0 1 .7-2.9 4 4 0 0 1 3.4-1.5 8 8 0 0 1 4.5 2.2l3 2.5a39.6 39.6 0 0 0 10.9-1L52.2 7.4a1.4 1.4 0 0 1 1.3-1.6 1.5 1.5 0 0 1 1.7 1.3L56.6 23l.5-.2c.4-5.3 2.3-10.2 4.1-14.7.4-1 1.5-3.9 4.2-4s4.1 2.5 4.3 5c.4 6.7-4.2 12.5-9.7 15.5v.5c.1 4.8 2.4 10.5 7.3 12.4a1.5 1.5 0 0 1 .8 2 1.4 1.4 0 0 1-1.4.9zM46.5 27.9l8.1 6.6-.7-7.6a36.6 36.6 0 0 1-7.4 1zm-11.4-4.7a1.5 1.5 0 0 0-.9.4v.2c.1.2.6.5 2.1.6l1.5.2a4.2 4.2 0 0 0-2.6-1.4zM65.5 7.1c-.2 0-.8.2-1.5 2.1a55.1 55.1 0 0 0-3.7 11.7c3.8-2.7 6.7-6.9 6.4-11.6-.1-1.1-.7-2.2-1.2-2.2z"/><path d="M67.5 36.1a3.5 3.5 0 0 1-2.1-.8 1.5 1.5 0 0 1-.4-2 1.5 1.5 0 0 1 2.1-.4l.3.2.3-.2a5.2 5.2 0 0 1 1.1-.7l.3-.2c1.6-.9 3.7-2.1 6-1.6a8.4 8.4 0 0 1 2.5 1.3l1.1.7c2 .9 4.6 0 7.1-1s6.4-2.4 9.5-.9a1.6 1.6 0 0 1 .7 2 1.5 1.5 0 0 1-2.1.7c-1.9-1-4.6 0-7 .9s-6.4 2.5-9.5 1l-1.5-.9a3.7 3.7 0 0 0-1.5-.8c-1.2-.3-2.5.5-3.9 1.2l-.2.2-.9.5a2.9 2.9 0 0 1-1.9.8z"/></symbol><symbol id="rachel-hisko" viewBox="0 0 97.4 44.5"><path d="M28.2 41.3a1.6 1.6 0 0 1-1.3-.8c-3.3-5.4-7.9-6.5-13.7-3.2a1.8 1.8 0 0 1-1.9.1 1.5 1.5 0 0 1-.7-1.4c0-.7.4-1 1.7-2.1l5.5-4.7c4.9-4.4 13.8-15 12.2-20-.4-1.5-2.1-2.4-5-2.8-14.4-1.7-20.9 8.1-21 8.2a1.6 1.6 0 0 1-2.1.4 1.6 1.6 0 0 1-.4-2.1c.3-.4 7.7-11.4 23.9-9.4 4.1.4 6.6 2.1 7.5 4.9 2.7 8.5-13 22.9-13.1 23l-1.3 1.1c4.4-.3 8.2 2 11 6.5a1.5 1.5 0 0 1-.5 2 1.3 1.3 0 0 1-.8.3z"/><path d="M19.6 39.6a1.5 1.5 0 0 1-1.5-1.5c0-1.2-.8-16.3-1.1-20.6s-.4-7.1-.4-7.2a1.5 1.5 0 0 1 1.5-1.5 1.4 1.4 0 0 1 1.5 1.5s.1 3 .4 7 1.1 19.3 1.1 20.8a1.5 1.5 0 0 1-1.5 1.5zm14.2-1.1l-1.2-.2c-2-1.1-2-4.6-2-5.6a1.5 1.5 0 0 1 1.6-1.4 1.4 1.4 0 0 1 1.4 1.6 9.3 9.3 0 0 0 .3 2.6l.7-.5c2.8-2.4 4.5-2 6-.6l.6.4a5.6 5.6 0 0 0 1.8-.7 5.3 5.3 0 0 1 3.7-1 1.6 1.6 0 0 1 1.3 1.8 1.5 1.5 0 0 1-1.7 1.2c-.6-.1-1 .1-1.8.6a8 8 0 0 1-3.1 1.1 3.6 3.6 0 0 1-2.7-1.2l-.5-.3s-.4 0-1.7 1a4.3 4.3 0 0 1-2.7 1.2z"/><path d="M66.7 40.4h-.5C60.3 38 57.4 31.6 57 26h-.1l1 11.6a1.6 1.6 0 0 1-.8 1.5 1.4 1.4 0 0 1-1.6-.2L41.7 27.8l-5.8-.4c-2.6-.2-4.2-1.1-4.7-2.8a3.5 3.5 0 0 1 .7-2.9 4 4 0 0 1 3.4-1.5 8 8 0 0 1 4.5 2.2l3 2.5a39.6 39.6 0 0 0 10.9-1L52.2 7.4a1.4 1.4 0 0 1 1.3-1.6 1.5 1.5 0 0 1 1.7 1.3L56.6 23l.5-.2c.4-5.3 2.3-10.2 4.1-14.7.4-1 1.5-3.9 4.2-4s4.1 2.5 4.3 5c.4 6.7-4.2 12.5-9.7 15.5v.5c.1 4.8 2.4 10.5 7.3 12.4a1.5 1.5 0 0 1 .8 2 1.4 1.4 0 0 1-1.4.9zM46.5 27.9l8.1 6.6-.7-7.6a36.6 36.6 0 0 1-7.4 1zm-11.4-4.7a1.5 1.5 0 0 0-.9.4v.2c.1.2.6.5 2.1.6l1.5.2a4.2 4.2 0 0 0-2.6-1.4zM65.5 7.1c-.2 0-.8.2-1.5 2.1a55.1 55.1 0 0 0-3.7 11.7c3.8-2.7 6.7-6.9 6.4-11.6-.1-1.1-.7-2.2-1.2-2.2z"/><path d="M67.5 36.1a3.5 3.5 0 0 1-2.1-.8 1.5 1.5 0 0 1-.4-2 1.5 1.5 0 0 1 2.1-.4l.3.2.3-.2a5.2 5.2 0 0 1 1.1-.7l.3-.2c1.6-.9 3.7-2.1 6-1.6a8.4 8.4 0 0 1 2.5 1.3l1.1.7c2 .9 4.6 0 7.1-1s6.4-2.4 9.5-.9a1.6 1.6 0 0 1 .7 2 1.5 1.5 0 0 1-2.1.7c-1.9-1-4.6 0-7 .9s-6.4 2.5-9.5 1l-1.5-.9a3.7 3.7 0 0 0-1.5-.8c-1.2-.3-2.5.5-3.9 1.2l-.2.2-.9.5a2.9 2.9 0 0 1-1.9.8z"/></symbol></svg>