<svg xmlns="http://www.w3.org/2000/svg"><symbol id="rachel-hisko" viewBox="0 0 97.4 44.5"><path fill="none" stroke="#000" stroke-linecap="round" stroke-linejoin="round" stroke-width="2" d="M2.8 13.7S9.7 3.1 25.2 4.9s-.8 20.4-6.4 25.4-6.7 5.6-6.7 5.8 9.6-7 16.1 3.7"/><path fill="none" stroke="#000" stroke-linecap="round" stroke-linejoin="round" stroke-width="2" d="M18.1 10.3s.1 3.1.4 7.1 1.1 19.3 1.1 20.7m12.5-5.3s-.3 6.6 3.5 3.4 3.6.2 5.7.1 3.1-2 5.2-1.7m7.2-27.3l2.7 30.6-17.5-14.4c-1.1-.8-2.3-1.8-3.7-1.8s-2.9 1.1-2.5 2.5 2 1.6 3.3 1.7c6.9.6 14 1.1 20.5-1.3s12.1-8.5 11.7-15.4c-.2-1.6-1.1-3.6-2.7-3.6s-2.4 1.7-2.9 3c-2.1 5.3-4.2 10.8-4.1 16.5s3 11.7 8.2 13.8"/><path fill="none" stroke="#000" stroke-linecap="round" stroke-linejoin="round" stroke-width="2" d="M64.3 34.1c1.5 1.1 3.6.3 5.2-.6s3.4-2 5.2-1.6 2.2 1.3 3.4 1.8 5.6.2 8.2-.9 5.8-2.2 8.3-.9"/></symbol></svg>