<svg xmlns="http://www.w3.org/2000/svg" viewBox="0 0 97.38 44.5" width="97.38" height="44.5"><path d="M27.65 40.93a.7.7 0 0 1-.59-.33c-3.65-6-8.93-7.23-15.26-3.68-.4.23-.7.39-1.06.16a.7.7 0 0 1-.33-.63c0-.42.18-.55 1.41-1.58.94-.79 2.69-2.25 5.68-4.89 5.34-4.71 14.58-15.81 12.85-21.34-.6-1.92-2.57-3.09-5.86-3.48-15.28-1.8-22.33 8.62-22.4 8.73a.69.69 0 0 1-1.16-.76C1 13 8.52 1.89 24.65 3.79c3.88.45 6.24 2 7 4.44C33.93 15.44 21.79 28 18.42 31c-1.42 1.3-2.61 2.3-3.53 3.09 5.4-1.58 10.05.4 13.35 5.79a.69.69 0 0 1-.23.95.68.68 0 0 1-.36.1z"/><path d="M18.83 39.25a.68.68 0 0 1-.69-.68c0-1.32-.82-16.9-1.15-21.24a144.6 144.6 0 0 1-.37-7.37.69.69 0 0 1 .69-.7.7.7 0 0 1 .7.68s0 3.19.37 7.29S19.5 37 19.53 38.54a.7.7 0 0 1-.69.71zm14.54-1.12a1.71 1.71 0 0 1-.8-.19C30.86 37.09 31 33.69 31 33a.69.69 0 1 1 1.38.08c-.07 1.3.18 3.28.81 3.6.3.15.88-.11 1.58-.7 2.75-2.32 3.93-1.68 5.08-.67.47.4.74.62 1.24.61a4.7 4.7 0 0 0 2.18-.81 4.77 4.77 0 0 1 3.29-.86.69.69 0 0 1-.21 1.37 3.47 3.47 0 0 0-2.39.7 6 6 0 0 1-2.81 1 3 3 0 0 1-2.21-1c-.73-.63-1.21-1-3.27.69a3.75 3.75 0 0 1-2.3 1.12zm33.86 1.95A.56.56 0 0 1 67 40c-6-2.4-8.81-9.18-8.91-14.84v-.31c-.36.16-.73.3-1.1.44s-.52.19-.78.27l1.09 12.67a.69.69 0 0 1-1.13.6l-14.32-11.7c-2.12-.08-4.21-.24-6.21-.4-.87-.07-3.51-.27-4.06-2.31a2.41 2.41 0 0 1 .5-2.19A3.51 3.51 0 0 1 34.89 21 7.48 7.48 0 0 1 39 23.05l3.33 2.71a40.22 40.22 0 0 0 12.36-1.16L53.12 6.92a.69.69 0 1 1 1.38-.13l1.55 17.38.44-.15q.81-.3 1.62-.69c.32-5.41 2.37-10.64 4.2-15.31.58-1.5 1.59-3.5 3.58-3.56s3.34 2.16 3.49 4.38c.46 6.66-4.33 12.41-9.92 15.36v1c.1 5.2 2.62 11.41 8 13.57a.7.7 0 0 1 .39.91.69.69 0 0 1-.62.4zM44.11 27.19l11.66 9.52L54.82 26a38.75 38.75 0 0 1-10.71 1.19zm-9.38-4.84a2.14 2.14 0 0 0-1.57.75 1.09 1.09 0 0 0-.25 1c.2.72 1.16 1.15 2.84 1.29 1.39.1 2.83.22 4.29.3l-1.88-1.53a6.23 6.23 0 0 0-3.34-1.77zM66 5.85c-.87 0-1.63.9-2.33 2.68-1.69 4.32-3.58 9.13-4 14C64.4 19.74 68.39 14.7 68 8.94c-.09-1.29-.78-3.09-2-3.09z"/><path d="M66.47 35.64a3.78 3.78 0 0 1-2.18-.64.68.68 0 0 1-.18-1 .69.69 0 0 1 1-.19c1.31.89 3.26.13 4.67-.67L70 33c1.66-.95 3.54-2 5.57-1.53a7.29 7.29 0 0 1 2.31 1.17 10 10 0 0 0 1.25.76c2.36 1.12 5.21.11 7.94-1s6.18-2.34 9.07-.9a.7.7 0 0 1 .31.93.69.69 0 0 1-.93.31c-2.36-1.18-5.33-.13-7.92.94-3 1.25-6.2 2.35-9.07 1a11.11 11.11 0 0 1-1.42-.85 6.24 6.24 0 0 0-1.87-1c-1.49-.37-3 .53-4.55 1.39l-.3.17a8.25 8.25 0 0 1-3.92 1.25z"/></svg>