<svg xmlns="http://www.w3.org/2000/svg" id="Layer_1" viewBox="0 0 71.63 29.75" width="71.63" height="29.75"><defs><style>.cls-1{fill:#304e44}</style></defs><path d="M19.72 28.51a.49.49 0 0 1-.43-.24c-2.63-4.29-6.43-5.2-11-2.65-.29.16-.5.28-.77.12a.53.53 0 0 1-.23-.46c0-.3.13-.4 1-1.14.68-.56 1.94-1.62 4.1-3.52 3.84-3.39 10.5-11.38 9.25-15.37-.43-1.38-1.85-2.22-4.22-2.5C6.43 1.45 1.36 9 1.31 9a.49.49 0 0 1-.69.14.49.49 0 0 1-.15-.69C.53 8.4 5.94.39 17.56 1.75c2.79.33 4.49 1.41 5.05 3.2 1.63 5.2-7.11 14.27-9.54 16.42-1.05.92-1.88 1.65-2.54 2.21 3.89-1.14 7.23.29 9.61 4.17a.5.5 0 0 1-.16.69.48.48 0 0 1-.26.07z" class="cls-1"/><path d="M13.36 27.3a.51.51 0 0 1-.5-.49c0-.95-.58-12.18-.82-15.3s-.27-5.28-.27-5.31a.5.5 0 1 1 1 0s0 2.29.27 5.25.81 14.22.82 15.35a.5.5 0 0 1-.49.51zm10.48-.81a1.27 1.27 0 0 1-.58-.13c-1.23-.62-1.16-3.06-1.14-3.55a.5.5 0 1 1 1 .06c-.05.94.12 2.36.58 2.59.22.11.63-.07 1.14-.5 2-1.67 2.83-1.21 3.66-.49a1.24 1.24 0 0 0 .89.45 3.48 3.48 0 0 0 1.61-.58 3.45 3.45 0 0 1 2.37-.63.5.5 0 0 1 .42.57.49.49 0 0 1-.57.42 2.54 2.54 0 0 0-1.72.5 4.3 4.3 0 0 1-2 .72 2.13 2.13 0 0 1-1.58-.69c-.53-.46-.88-.76-2.37.49a2.62 2.62 0 0 1-1.71.77zm24.39 1.41a.39.39 0 0 1-.18 0c-4.34-1.72-6.35-6.61-6.42-10.69a1.62 1.62 0 0 1 0-.22c-.26.11-.52.22-.79.31l-.56.2.81 9.11a.51.51 0 0 1-.82.43L30 18.57c-1.53-.06-3-.18-4.48-.29-.62-.05-2.52-.2-2.93-1.66a1.78 1.78 0 0 1 .32-1.62 2.5 2.5 0 0 1 2-.91 5.37 5.37 0 0 1 3 1.5l2.4 1.95a28.56 28.56 0 0 0 8.88-.84L38.06 4a.5.5 0 0 1 1-.09l1.11 12.52.32-.11c.39-.15.78-.31 1.17-.5.23-3.9 1.7-7.66 3-11 .43-1.08 1.15-2.52 2.58-2.56s2.43 1.54 2.54 3.14c.33 4.79-3.12 8.93-7.15 11.06v.7c.06 3.74 1.88 8.22 5.79 9.78a.5.5 0 0 1 .28.64.51.51 0 0 1-.47.32zm-16.65-9.29L40 25.47l-.69-7.71a28 28 0 0 1-7.73.85zm-6.76-3.49a1.52 1.52 0 0 0-1.13.55.74.74 0 0 0-.18.68c.14.53.83.84 2 .93 1 .08 2 .16 3.09.22l-1.35-1.1a4.45 4.45 0 0 0-2.41-1.27zm22.5-11.88c-.63 0-1.18.65-1.68 1.93a38.53 38.53 0 0 0-2.94 10.11c3.49-2 6.37-5.66 6.08-9.81-.06-.94-.56-2.23-1.46-2.23z" class="cls-1"/><path d="M47.68 24.7a2.71 2.71 0 0 1-1.57-.46.5.5 0 0 1 .56-.83c.94.64 2.35.09 3.36-.48l.22-.12c1.19-.69 2.55-1.46 4-1.11a5.22 5.22 0 0 1 1.66.85 7.93 7.93 0 0 0 .9.54c1.7.81 3.76.08 5.72-.73s4.45-1.68 6.54-.64a.5.5 0 0 1 .22.67.49.49 0 0 1-.67.22c-1.7-.85-3.84-.09-5.71.68-2.17.9-4.46 1.69-6.53.7a6.88 6.88 0 0 1-1-.61 4.47 4.47 0 0 0-1.35-.7c-1.07-.27-2.19.38-3.28 1l-.21.12a6 6 0 0 1-2.86.9z" class="cls-1"/></svg>