<svg id="Layer_1" data-name="Layer 1" xmlns="http://www.w3.org/2000/svg" viewBox="0 0 223.6 43.6"><title>scuba-icons</title><circle cx="13" cy="21.8" r="3.2"/><path d="M10,11.8l-1.83,2H5a2,2,0,0,0-2,2v12a2,2,0,0,0,2,2H21a2,2,0,0,0,2-2v-12a2,2,0,0,0-2-2H17.83L16,11.8Zm3,15a5,5,0,1,1,5-5A5,5,0,0,1,13,26.8Z"/><path d="M31,27.05V30.8h3.75L45.81,19.74,42.06,16ZM48.71,16.84a1,1,0,0,0,0-1.41l-2.34-2.34a1,1,0,0,0-1.41,0l-1.83,1.83,3.75,3.75Z"/><path d="M105.75,25.8v-12a2,2,0,0,0-2-2h-12a2,2,0,0,0-2,2v12a2,2,0,0,0,2,2h12A2,2,0,0,0,105.75,25.8Zm-11-4,2,2.71,3-3.71,4,5h-12Zm-9-6v14a2,2,0,0,0,2,2h14v-2h-14v-14Z"/><path d="M62,25.8h6v-6h4l-7-7-7,7h4Zm-4,2H72v2H58Z"/><path d="M133,25.88a2.91,2.91,0,0,0-2,.77l-7.13-4.15a2.77,2.77,0,0,0,0-1.4L131,17a3,3,0,1,0-1-2.19,3.27,3.27,0,0,0,.09.7l-7.05,4.11a3,3,0,1,0,0,4.38l7.12,4.16a2.82,2.82,0,0,0-.08.65A2.92,2.92,0,1,0,133,25.88Z"/><path d="M155.3,20.7c-2.27-.59-3-1.2-3-2.15s1-1.85,2.7-1.85,2.44.85,2.5,2.1h2.21A4,4,0,0,0,156.5,15V12.8h-3V15c-1.94.42-3.5,1.68-3.5,3.61,0,2.31,1.91,3.46,4.7,4.13,2.5.6,3,1.48,3,2.41,0,.69-.49,1.79-2.7,1.79s-2.87-.92-3-2.1h-2.2c.12,2.19,1.76,3.42,3.68,3.83V30.8h3V28.65c1.95-.37,3.5-1.5,3.5-3.55C160,22.26,157.57,21.29,155.3,20.7Z"/><path d="M180.84,21.8a4,4,0,1,0-4-4A4,4,0,0,0,180.84,21.8Zm0,2c-2.67,0-8,1.34-8,4v2h16v-2C188.84,25.14,183.51,23.8,180.84,23.8Z"/><path d="M217.62,22.78a6.9,6.9,0,0,0,0-2l2.11-1.65a.5.5,0,0,0,.12-.64l-2-3.46a.5.5,0,0,0-.61-.22l-2.49,1a7.31,7.31,0,0,0-1.69-1l-.38-2.65a.49.49,0,0,0-.49-.42h-4a.49.49,0,0,0-.49.42l-.38,2.65a7.68,7.68,0,0,0-1.69,1l-2.49-1a.49.49,0,0,0-.61.22l-2,3.46a.49.49,0,0,0,.12.64l2.11,1.65a6.89,6.89,0,0,0,0,2l-2.11,1.65a.5.5,0,0,0-.12.64l2,3.46a.5.5,0,0,0,.61.22l2.49-1a7.31,7.31,0,0,0,1.69,1l.38,2.65a.49.49,0,0,0,.49.42h4a.49.49,0,0,0,.49-.42l.38-2.65a7.68,7.68,0,0,0,1.69-1l2.49,1a.49.49,0,0,0,.61-.22l2-3.46a.5.5,0,0,0-.12-.64Zm-7.43,2.52a3.5,3.5,0,1,1,3.5-3.5A3.5,3.5,0,0,1,210.19,25.3Z"/></svg>